<?xml version="1.0" standalone="no"?>
<!DOCTYPE svg PUBLIC "-//W3C//DTD SVG 20010904//EN"
 "http://www.w3.org/TR/2001/REC-SVG-20010904/DTD/svg10.dtd">
<svg version="1.0" xmlns="http://www.w3.org/2000/svg"
 width="399.000000pt" height="399.000000pt" viewBox="0 0 399.000000 399.000000"
 preserveAspectRatio="xMidYMid meet">
<metadata>
Created by potrace 1.14, written by Peter Selinger 2001-2017
</metadata>
<g transform="translate(0.000000,399.000000) scale(0.100000,-0.100000)"
fill="#000000" stroke="none">
<path d="M922 3130 c-123 -19 -139 -44 -98 -148 35 -90 63 -205 71 -288 3 -38
8 -88 11 -112 2 -24 1 -41 -3 -39 -5 3 -28 8 -53 11 -25 3 -72 13 -104 20 -89
21 -107 5 -66 -62 119 -195 433 -265 676 -151 130 61 260 240 159 219 -35 -7
-155 -29 -182 -33 -30 -5 -32 -3 -28 21 2 15 6 59 9 98 7 96 29 195 66 294 39
110 39 127 -4 145 -18 8 -46 17 -62 20 -47 11 -334 14 -392 5z"/>
<path d="M840 2293 c-80 -22 -124 -53 -90 -65 6 -2 13 -25 15 -51 8 -75 41
-126 92 -141 110 -34 188 8 212 113 5 24 15 47 22 52 19 12 49 -9 49 -34 1
-46 37 -105 77 -126 61 -31 154 -17 191 28 26 32 40 76 41 129 1 21 6 32 16
32 8 0 12 6 9 14 -8 21 -79 46 -148 53 -51 4 -72 1 -126 -20 -81 -32 -109 -32
-188 -1 -58 23 -124 29 -172 17z"/>
<path d="M905 1943 c-25 -24 -62 -45 -116 -63 -138 -48 -242 -133 -268 -220
-13 -43 -20 -627 -8 -647 3 -5 52 -9 109 -8 81 1 108 -2 128 -15 52 -34 208
-120 219 -120 6 0 31 41 56 90 25 50 51 90 58 90 7 0 33 -41 57 -90 24 -49 50
-90 57 -90 21 0 243 130 243 142 0 7 5 7 13 1 6 -5 55 -9 107 -8 l95 0 0 325
0 325 -27 47 c-48 81 -156 154 -278 189 -26 7 -62 28 -85 50 l-40 37 -141 1
-141 1 -38 -37z m-145 -473 c34 -133 34 -161 5 -273 -13 -52 -17 -70 -31 -142
-3 -16 -6 -31 -8 -32 -2 -2 -3 127 -3 287 0 159 1 289 3 287 1 -1 17 -58 34
-127z m685 -165 c0 -151 -3 -271 -6 -267 -5 6 -13 38 -33 137 -3 11 -11 50
-19 87 -14 66 -14 71 16 193 17 69 34 125 37 125 3 0 5 -124 5 -275z"/>
<path d="M3056 1890 c-78 -31 -135 -96 -115 -133 10 -17 40 -24 38 -9 -5 29 6
55 35 86 18 20 38 36 44 36 6 0 -5 -35 -24 -77 -20 -43 -45 -98 -56 -123 -11
-25 -28 -62 -38 -82 l-18 -38 33 0 c33 0 35 3 76 90 31 65 47 90 61 90 25 0
23 -30 -6 -88 -37 -75 -40 -89 -16 -97 29 -9 60 3 53 21 -3 8 6 38 21 67 37
75 40 106 13 116 -12 5 -25 7 -29 4 -5 -2 -8 0 -8 4 0 5 17 23 38 40 20 17 57
49 80 70 40 36 42 39 20 40 -17 2 -42 -16 -92 -67 -38 -39 -70 -70 -72 -70 -3
0 6 21 20 48 39 78 41 92 14 92 -13 -1 -45 -10 -72 -20z"/>
<path d="M3368 1896 c-42 -18 -78 -57 -78 -84 0 -13 15 -45 33 -71 18 -25 32
-53 31 -61 -1 -8 -2 -24 -3 -36 -1 -28 -45 -74 -71 -74 -12 0 -25 10 -31 24
-15 32 3 64 44 81 l32 13 -29 8 c-39 10 -78 -15 -93 -60 -16 -47 -9 -64 37
-77 49 -15 102 -5 140 28 68 56 75 127 20 190 -34 38 -38 72 -12 96 21 19 57
22 67 7 4 -6 0 -22 -9 -35 -21 -31 -20 -35 4 -35 41 0 57 83 18 94 -34 9 -69
6 -100 -8z"/>
<path d="M2267 1739 c-109 -17 -177 -106 -172 -224 6 -146 137 -233 277 -185
142 48 176 254 60 363 -39 37 -104 55 -165 46z m59 -105 c45 -12 67 -90 45
-157 -29 -85 -130 -75 -150 16 -22 94 29 162 105 141z"/>
<path d="M2565 1740 c-27 -3 -55 -9 -62 -13 -16 -10 -9 -58 11 -69 9 -5 16
-14 16 -19 0 -6 22 -43 48 -82 52 -79 65 -133 38 -160 -20 -20 -20 -51 -1 -67
23 -19 124 -16 143 4 14 14 15 21 3 49 -25 63 -22 92 15 134 77 85 109 183 72
219 -24 24 -60 11 -77 -28 -20 -49 -62 -108 -76 -108 -7 0 -20 11 -29 25 -12
18 -13 30 -6 50 14 38 13 43 -17 58 -18 8 -46 11 -78 7z"/>
<path d="M1749 1719 c-24 -24 -24 -32 -1 -52 16 -15 18 -33 18 -141 -1 -86 -5
-129 -13 -138 -22 -21 -16 -57 10 -63 55 -12 79 -13 106 -4 35 12 48 55 22 71
-19 12 -17 78 3 78 17 0 64 -47 71 -72 12 -37 55 -88 74 -88 23 0 43 23 45 53
2 26 -29 105 -51 129 -14 15 -14 20 -2 35 8 10 18 21 22 24 12 9 11 90 -1 120
-19 46 -84 69 -191 68 -77 -1 -96 -4 -112 -20z m192 -95 c17 -21 0 -48 -33
-52 -20 -2 -26 2 -30 20 -2 13 -3 29 0 36 5 17 47 15 63 -4z"/>
<path d="M1774 1221 c-2 -2 -21 -4 -41 -5 -33 -1 -38 -4 -41 -27 -3 -23 1 -26
27 -27 17 0 30 2 30 6 -4 23 3 31 22 29 30 -5 34 -17 33 -101 -1 -59 2 -76 12
-76 16 0 16 -1 16 95 1 39 6 73 12 77 28 19 34 7 34 -64 0 -106 1 -108 16
-108 10 0 14 13 14 46 0 25 2 48 5 50 3 3 22 -9 42 -27 34 -30 43 -33 109 -33
l71 -1 23 44 c12 25 22 50 22 58 0 15 29 18 31 3 3 -19 4 -25 10 -35 4 -5 9
-22 13 -37 4 -19 13 -28 26 -28 19 0 19 1 -1 53 -12 28 -25 62 -30 75 -11 29
-37 39 -53 21 -7 -8 -23 -40 -35 -71 -20 -50 -26 -56 -49 -55 -29 3 -41 24
-18 33 20 8 21 38 1 54 -17 14 -9 34 11 26 17 -7 30 14 15 23 -9 6 -41 7 -83
2 -15 -2 -8 -23 18 -53 l25 -31 -27 -28 c-26 -27 -29 -28 -46 -12 -21 18 -23
44 -7 60 9 9 8 18 -5 37 -9 15 -22 26 -29 27 -41 3 -169 3 -173 0z m174 -38
c7 -11 6 -21 -3 -30 -20 -20 -35 -16 -35 10 0 39 22 50 38 20z"/>
<path d="M2240 1220 c-7 -4 -6 -11 5 -20 8 -7 15 -9 15 -4 0 4 5 3 11 -3 6 -6
12 -38 13 -72 2 -58 9 -81 22 -68 3 3 7 36 8 74 1 46 5 68 14 69 6 1 20 2 29
3 13 1 14 4 6 12 -13 13 -107 19 -123 9z"/>
<path d="M2832 1215 c-19 -8 -34 -10 -37 -4 -4 5 -17 9 -31 9 -20 0 -24 -5
-24 -29 0 -25 4 -30 23 -29 12 1 28 6 35 11 9 8 12 7 10 -3 -2 -7 13 -24 32
-37 41 -29 45 -48 10 -49 -51 -2 -55 -3 -43 -15 17 -17 72 -18 88 -2 28 27 18
58 -26 82 -44 25 -41 46 6 46 14 0 25 4 26 10 1 17 -37 23 -69 10z"/>
<path d="M2930 1222 c-17 -6 -11 -28 15 -54 l25 -25 -30 -33 c-17 -19 -30 -37
-30 -41 0 -9 49 -18 82 -14 20 3 29 -1 33 -16 5 -15 16 -19 56 -19 37 0 49 4
49 15 0 9 -9 15 -24 15 -18 0 -23 5 -21 18 2 9 4 25 4 35 1 13 10 17 36 17 24
0 35 5 35 15 0 11 -11 15 -36 15 -31 0 -35 3 -32 23 2 16 10 22 30 22 24 0 65
24 43 26 -50 2 -227 3 -235 1z m93 -35 c-2 -4 -3 -29 -3 -57 0 -47 -2 -50 -25
-50 -29 0 -32 16 -9 41 15 17 15 20 0 43 -21 33 -21 35 12 33 15 -1 26 -6 25
-10z"/>
<path d="M2440 1212 c0 -4 11 -24 25 -44 15 -22 25 -51 25 -72 0 -19 5 -38 11
-41 15 -10 18 -4 20 40 1 23 12 53 26 72 12 17 23 36 23 42 0 20 -28 11 -44
-14 -18 -27 -41 -24 -49 6 -5 18 -37 28 -37 11z"/>
<path d="M2587 1196 c-51 -56 -52 -58 -32 -72 10 -8 15 -14 10 -14 -4 0 0 -10
11 -21 51 -57 111 -42 155 37 10 19 7 27 -21 58 -41 45 -89 49 -123 12z m92
-20 c9 -10 9 -16 1 -21 -8 -5 -8 -11 0 -20 14 -17 5 -34 -24 -45 -27 -10 -58
6 -54 28 1 9 -1 23 -6 31 -20 31 59 56 83 27z"/>
</g>
</svg>
